/* XPM */
static char* picture[] = {
"16 16 7 1",
" 	c b'#000000'",
"X	c b'#060608'",
"+	c b'#3a5124'",
".	c b'#4b692f'",
"|	c b'#7e4c35'",
"/	c b'#683e2c'",
"6	c b'#040406'",
"                ",
"                ",
"      XXXXX     ",
"     X/|||/X    ",
"  XXX/|||||/XXX ",
"  X+..||||||.+X ",
"   X+.|++++++X  ",
"   X/./+++++X   ",
"   X/++.X..XX   ",
"   X//+.....X   ",
"    XX+.....X   ",
"     X++XXX+X   ",
"     6+X X+X    ",
"     XX  XX     ",
"                ",
"                "};